<?xml version="1.0" encoding="utf-8"?>
<!-- Generator: Adobe Illustrator 28.2.0, SVG Export Plug-In . SVG Version: 6.00 Build 0)  -->
<svg version="1.1" id="Layer_1" xmlns="http://www.w3.org/2000/svg" xmlns:xlink="http://www.w3.org/1999/xlink" x="0px" y="0px"
	 viewBox="0 0 1089.2 1005.9" style="enable-background:new 0 0 1089.2 1005.9;" xml:space="preserve">
<style type="text/css">
	.st0{display:none;fill:#FFFFFF;}
</style>
<g transform="matrix(30.86 0 0 30.86 540 540)">
	<g>
		<g id="Layer_6" transform="matrix(1 0 0 1 -1.4 -0.05)">
			<path vector-effect="non-scaling-stroke" d="M0.2,15C-8.7,15-16,7.8-16-1.2s7.3-16.2,16.2-16.2s16.2,7.3,16.2,16.2S9.1,15,0.2,15
				z M0.2-14.8c-5.6,0-10.6,3.3-12.7,8.5s-0.9,11,3,14.9s9.8,5.1,15,2.9s8.4-7.2,8.4-12.7c0-3.6-1.4-7.1-4-9.7S3.8-14.8,0.2-14.8z"
				/>
		</g>
		<g id="Layer_6_00000016065137632128294070000014471600402824865450_" transform="matrix(1 0 0 1 13.42 12.03)">
			<path vector-effect="non-scaling-stroke" d="M3,2.9c-0.3,0-0.6-0.1-0.8-0.4l-5.7-5.6C-4-3.6-4-4.4-3.5-4.8c0.5-0.5,1.2-0.5,1.7,0
				l5.7,5.6C4.1,1,4.3,1.3,4.3,1.6c0,0.3-0.1,0.6-0.4,0.8C3.7,2.8,3.3,2.9,3,2.9z"/>
		</g>
	</g>
</g>
</svg>
